<?xml version="1.0" encoding="UTF-8"?>
<svg version="1.1" xmlns="http://www.w3.org/2000/svg" width="200" height="221">
<path d="M0 0 C1.34771484 -0.00386719 1.34771484 -0.00386719 2.72265625 -0.0078125 C4.9375 0.125 4.9375 0.125 5.9375 1.125 C6.30510731 3.45317964 6.63991581 5.7868385 6.9375 8.125 C7.659375 7.774375 8.38125 7.42375 9.125 7.0625 C13.52766352 5.59494549 15.87724244 6.67969182 20.0625 8.4375 C23.83138562 11.96058873 24.1470729 14.8939766 25.15625 19.84375 C25.94897216 23.17318308 27.09085843 26.01178026 28.5 29.125 C34.51224454 43.14751596 34.18853375 58.70209133 29.21484375 73.0390625 C25.10562811 82.96652537 18.01220828 95.08764586 7.9375 100.125 C8.36849453 106.41978852 8.97718086 112.59391466 10.0625 118.8125 C11.74592453 129.99998273 9.58199357 135.7524958 3.359375 144.98828125 C-0.47536314 149.95488564 -3.94814462 152.6002422 -10.0625 154.125 C-17.26138436 154.91838053 -24.15343608 155.3563106 -30.1171875 150.8125 C-30.75914063 150.255625 -31.40109375 149.69875 -32.0625 149.125 C-32.93132812 148.42375 -33.80015625 147.7225 -34.6953125 147 C-40.51575106 142.09159598 -43.44501768 138.81099639 -44.46630859 131.06054688 C-44.54703613 129.99900391 -44.62776367 128.93746094 -44.7109375 127.84375 C-44.83082031 126.67199219 -44.95070312 125.50023437 -45.07421875 124.29296875 C-45.31605715 121.85118105 -45.51933548 119.40526167 -45.68359375 116.95703125 C-46.09477369 113.32826849 -46.56021447 110.45971605 -48.0625 107.125 C-51.7707161 104.29518936 -55.74450653 102.80899578 -60.0625 101.125 C-63.73300723 98.43359829 -66.87241292 95.3665401 -70.0625 92.125 C-70.63742188 91.54878906 -71.21234375 90.97257812 -71.8046875 90.37890625 C-78.32192283 83.33826601 -82.87216332 75.12490697 -83.3125 65.4375 C-83.0625 63.125 -83.0625 63.125 -81.1875 60.6875 C-80.48625 60.171875 -79.785 59.65625 -79.0625 59.125 C-78.2752322 56.9868034 -78.2752322 56.9868034 -78.0625 55.125 C-75.0925 54.63 -75.0925 54.63 -72.0625 54.125 C-72.3925 52.475 -72.7225 50.825 -73.0625 49.125 C-66.27030865 44.94518994 -60.94852342 44.6518386 -53.0625 45.125 C-53.7225 44.50625 -54.3825 43.8875 -55.0625 43.25 C-57.51903079 39.41167064 -57.53960129 36.88341887 -57.59375 32.4296875 C-57.0625 30.125 -57.0625 30.125 -55.15625 28.3203125 C-53.0625 27.125 -53.0625 27.125 -51.0625 27.125 C-50.98 26.238125 -50.8975 25.35125 -50.8125 24.4375 C-49.96129084 20.67799285 -48.68284678 18.90415568 -46.0625 16.125 C-43.58381164 14.88565582 -41.83078092 15.05505104 -39.0625 15 C-33.17647951 14.55198269 -29.85834136 12.39652272 -25.3515625 8.71875 C-22.8408204 6.97065652 -21.09841131 6.37501623 -18.0625 6.125 C-16.25 7.5625 -16.25 7.5625 -15.0625 9.125 C-14.485 8.5475 -13.9075 7.97 -13.3125 7.375 C-12.57 6.6325 -11.8275 5.89 -11.0625 5.125 C-10.010625 4.0421875 -10.010625 4.0421875 -8.9375 2.9375 C-5.94408906 0.04386943 -4.06088728 -0.01168601 0 0 Z " fill="#FEE84D" transform="translate(148.0625,63.875)"/>
<path d="M0 0 C9.72185466 10.36690663 13.30874315 25.09124298 13.09375 38.97509766 C12.33095581 55.45065753 6.09288935 69.56188639 -6 81 C-16.02589422 89.90735908 -26.9550995 93.91836694 -40 96 C-39.505 94.515 -39.505 94.515 -39 93 C-36.48828125 91.75390625 -36.48828125 91.75390625 -33.3125 90.5625 C-25.64425479 87.63669419 -25.64425479 87.63669419 -19.625 82.25 C-18.6586575 78.77116699 -18.33758529 75.53757644 -19 72 C-22.86747515 66.38592317 -25.97890093 66.34036636 -33 64 C-33 70.27 -33 76.54 -33 83 C-37 82 -37 82 -38 81 C-39.13981633 73.39854887 -39.14984938 65.86181557 -39.125 58.1875 C-39.13080078 56.36702148 -39.13080078 56.36702148 -39.13671875 54.50976562 C-39.13542969 53.34509766 -39.13414062 52.18042969 -39.1328125 50.98046875 C-39.13168457 49.92754639 -39.13055664 48.87462402 -39.12939453 47.78979492 C-39.01643381 45.3543191 -38.70245313 43.32325734 -38 41 C-39.64507218 40.80593522 -41.29109594 40.61992065 -42.9375 40.4375 C-43.85402344 40.33308594 -44.77054688 40.22867188 -45.71484375 40.12109375 C-46.46894531 40.08113281 -47.22304687 40.04117188 -48 40 C-48.33 40.33 -48.66 40.66 -49 41 C-52.36629251 41.14636054 -54.78419562 41.07193479 -58 40 C-57.2997933 44.09351607 -56.06734593 47.83687655 -54.6875 51.75 C-52.72940785 57.48040487 -51.05641177 63.24066266 -49.625 69.125 C-49.44541748 69.83495117 -49.26583496 70.54490234 -49.08081055 71.27636719 C-48.16757921 75.17120814 -47.84432783 78.14275653 -49 82 C-50.32 81.67 -51.64 81.34 -53 81 C-53.15033691 80.35675781 -53.30067383 79.71351563 -53.45556641 79.05078125 C-56.1273169 67.72562875 -58.76932088 56.53237034 -63.17041016 45.73632812 C-64.3022596 42.95794518 -65 41.04107811 -65 38 C-63.5625 36.25 -63.5625 36.25 -61 35 C-58.58979027 35.07584576 -56.30356639 35.37649137 -53.92578125 35.7734375 C-53.29027344 35.84820312 -52.65476562 35.92296875 -52 36 C-51.505 35.505 -51.505 35.505 -51 35 C-51.09259072 33.66191476 -51.2507196 32.32821618 -51.4375 31 C-51.62883747 29.33376952 -51.81618749 27.66707738 -52 26 C-52.0928125 25.18917969 -52.185625 24.37835938 -52.28125 23.54296875 C-52.43563285 21.21564728 -52.50603334 19.27942946 -52 17 C-49 14.4375 -49 14.4375 -46 13 C-45.505 13.33 -45.01 13.66 -44.5 14 C-41.00085132 15.39965947 -37.68444793 15.63672984 -34 15 C-32.989375 14.278125 -31.97875 13.55625 -30.9375 12.8125 C-28 11 -28 11 -24.5 11.625 C-20.25428726 13.79461532 -18.58415818 17.67731023 -16.5546875 21.8203125 C-15.15658477 24.25130623 -15.15658477 24.25130623 -12.3203125 24.8046875 C-11.55460937 24.86914062 -10.78890625 24.93359375 -10 25 C-7.45191256 22.29265709 -6.09524717 20.66673022 -5.5625 16.9375 C-5.75714352 13.9874694 -5.75714352 13.9874694 -7.5 12.0625 C-9 10 -9 10 -9.5625 6.5 C-9 3 -9 3 -6.1875 0.5 C-3 -1 -3 -1 0 0 Z " fill="#FEE84D" transform="translate(168,78)"/>
<path d="M0 0 C1.34771484 -0.00386719 1.34771484 -0.00386719 2.72265625 -0.0078125 C4.9375 0.125 4.9375 0.125 5.9375 1.125 C6.30510731 3.45317964 6.63991581 5.7868385 6.9375 8.125 C7.659375 7.774375 8.38125 7.42375 9.125 7.0625 C13.61741559 5.56502814 15.97309139 6.67988834 20.1875 8.625 C23.67368518 11.79425926 23.70979288 13.75238626 23.9296875 18.296875 C23.93355469 19.20179687 23.93355469 19.20179687 23.9375 20.125 C20.0625 16.375 20.0625 16.375 18.9375 14.125 C15.14202079 15.09276098 15.14202079 15.09276098 11.9375 17.125 C11.55841665 22.14785432 11.92121829 24.22896945 14.9375 28.125 C15.47658066 31.22471379 15.56803923 33.16167618 13.8125 35.84375 C12.58300464 37.32473305 11.2649688 38.73115776 9.9375 40.125 C7.75 40.125 7.75 40.125 4.9375 39.125 C2.96468285 36.625351 1.47855832 33.90431219 -0.0625 31.125 C-1.84507801 27.86347355 -1.84507801 27.86347355 -5.375 26.6875 C-6.591875 26.501875 -7.80875 26.31625 -9.0625 26.125 C-10.75425663 27.42635125 -12.41954805 28.76255204 -14.0625 30.125 C-17.66568101 30.76170668 -20.97533425 30.7151757 -24.25 28.9375 C-26.18112628 27.83570333 -26.18112628 27.83570333 -28.8125 28.9375 C-31.19733438 30.83462646 -31.19733438 30.83462646 -31.4140625 33.01953125 C-31.43926809 35.41826292 -31.29417488 37.73725402 -31.0625 40.125 C-30.98257813 40.97964844 -30.90265625 41.83429688 -30.8203125 42.71484375 C-30.59718478 44.85484139 -30.33354232 46.99054177 -30.0625 49.125 C-34.14806857 51.44695003 -36.42287377 50.88559446 -41.0625 50.125 C-44.06477708 50.03416678 -47.05977392 50.06371988 -50.0625 50.125 C-50.14886719 50.72828125 -50.23523438 51.3315625 -50.32421875 51.953125 C-51.48951147 58.58139549 -51.48951147 58.58139549 -54.5 61.4375 C-55.345625 61.994375 -56.19125 62.55125 -57.0625 63.125 C-58.82573505 65.25103185 -58.82573505 65.25103185 -60.0625 67.125 C-62.4375 66.9375 -62.4375 66.9375 -65.0625 66.125 C-66.2265625 63.57421875 -66.2265625 63.57421875 -67.0625 61.125 C-67.81015625 61.60710937 -68.5578125 62.08921875 -69.328125 62.5859375 C-70.31296875 63.21757813 -71.2978125 63.84921875 -72.3125 64.5 C-73.28703125 65.12648438 -74.2615625 65.75296875 -75.265625 66.3984375 C-77.49771615 67.77634852 -79.69337422 69.00812642 -82.0625 70.125 C-82.8125 66.875 -82.8125 66.875 -83.0625 63.125 C-81.1875 60.9375 -81.1875 60.9375 -79.0625 59.125 C-78.2752322 56.9868034 -78.2752322 56.9868034 -78.0625 55.125 C-75.0925 54.63 -75.0925 54.63 -72.0625 54.125 C-72.3925 52.475 -72.7225 50.825 -73.0625 49.125 C-66.27030865 44.94518994 -60.94852342 44.6518386 -53.0625 45.125 C-53.7225 44.50625 -54.3825 43.8875 -55.0625 43.25 C-57.51903079 39.41167064 -57.53960129 36.88341887 -57.59375 32.4296875 C-57.0625 30.125 -57.0625 30.125 -55.15625 28.3203125 C-53.0625 27.125 -53.0625 27.125 -51.0625 27.125 C-50.98 26.238125 -50.8975 25.35125 -50.8125 24.4375 C-49.96129084 20.67799285 -48.68284678 18.90415568 -46.0625 16.125 C-43.58381164 14.88565582 -41.83078092 15.05505104 -39.0625 15 C-33.17647951 14.55198269 -29.85834136 12.39652272 -25.3515625 8.71875 C-22.8408204 6.97065652 -21.09841131 6.37501623 -18.0625 6.125 C-16.25 7.5625 -16.25 7.5625 -15.0625 9.125 C-14.485 8.5475 -13.9075 7.97 -13.3125 7.375 C-12.57 6.6325 -11.8275 5.89 -11.0625 5.125 C-10.010625 4.0421875 -10.010625 4.0421875 -8.9375 2.9375 C-5.94408906 0.04386943 -4.06088728 -0.01168601 0 0 Z " fill="#FFB83B" transform="translate(148.0625,63.875)"/>
<path d="M0 0 C0.7076694 3.97584816 1.3874055 7.95600206 2.0625 11.9375 C2.26166016 13.05447266 2.46082031 14.17144531 2.66601562 15.32226562 C4.35772462 25.44284051 4.71018115 32.71942329 -1.25 41.3125 C-1.82427734 42.20291992 -1.82427734 42.20291992 -2.41015625 43.11132812 C-6.29042041 48.93172437 -10.17876928 52.29896627 -17 54 C-24.19888436 54.79338053 -31.09093608 55.2313106 -37.0546875 50.6875 C-37.69664063 50.130625 -38.33859375 49.57375 -39 49 C-40.30324219 47.948125 -40.30324219 47.948125 -41.6328125 46.875 C-49.76339471 40.01844064 -51.14574397 34.27389491 -52.625 24.0625 C-52.7590625 23.19431641 -52.893125 22.32613281 -53.03125 21.43164062 C-53.75252137 16.56305887 -54.14728266 11.92057991 -54 7 C-52.74509766 7.2165625 -52.74509766 7.2165625 -51.46484375 7.4375 C-34.30188929 10.17444955 -17.77875975 10.42799295 -2.5390625 0.953125 C-1 0 -1 0 0 0 Z " fill="#F2A120" transform="translate(155,164)"/>
<path d="M0 0 C0.68771484 0.10924805 1.37542969 0.21849609 2.08398438 0.33105469 C4.01953125 0.703125 4.01953125 0.703125 7.1875 1.75 C8.1775 3.73 8.1775 3.73 9.1875 5.75 C6.2175 6.74 3.2475 7.73 0.1875 8.75 C-0.1425 11.06 -0.4725 13.37 -0.8125 15.75 C-3.1225 16.41 -5.4325 17.07 -7.8125 17.75 C-8.3075 15.77 -8.3075 15.77 -8.8125 13.75 C-13.29934201 14.08867462 -13.29934201 14.08867462 -16.6875 16.8125 C-17.05875 17.451875 -17.43 18.09125 -17.8125 18.75 C-20.1225 18.42 -22.4325 18.09 -24.8125 17.75 C-24.1525 20.06 -23.4925 22.37 -22.8125 24.75 C-23.49957031 25.08773437 -24.18664062 25.42546875 -24.89453125 25.7734375 C-25.79558594 26.21945313 -26.69664063 26.66546875 -27.625 27.125 C-28.51832031 27.56585938 -29.41164062 28.00671875 -30.33203125 28.4609375 C-32.95806381 29.76866905 -32.95806381 29.76866905 -35.8125 31.75 C-36.534375 31.5025 -37.25625 31.255 -38 31 C-42.08437155 30.63694475 -43.9668308 32.48168409 -47.07421875 34.98046875 C-49.37979665 37.32749524 -50.20207835 39.54528633 -50.8125 42.75 C-52.7925 42.42 -54.7725 42.09 -56.8125 41.75 C-57.06 40.698125 -57.3075 39.64625 -57.5625 38.5625 C-58.57950786 34.9366459 -60.26623429 32.55089228 -62.8125 29.75 C-63.39 30.100625 -63.9675 30.45125 -64.5625 30.8125 C-66.8125 31.75 -66.8125 31.75 -68.8125 31.625 C-71.40771914 30.48959163 -72.92914483 28.83514322 -74.8125 26.75 C-62.31355605 11.29077985 -47.5606183 2.63715502 -28.0625 -0.9375 C-18.61468336 -1.84003533 -9.33867713 -1.60733816 0 0 Z " fill="#FFE84C" transform="translate(127.8125,21.25)"/>
<path d="M0 0 C0.60328125 0.08378906 1.2065625 0.16757813 1.828125 0.25390625 C3.02695313 0.40666016 3.02695313 0.40666016 4.25 0.5625 C5.03890625 0.66691406 5.8278125 0.77132812 6.640625 0.87890625 C8.95022503 1.13717485 8.95022503 1.13717485 10.859375 0.40234375 C14.14942963 -0.21604243 16.84686017 1.03974223 20 2 C19.99476318 2.89195068 19.98952637 3.78390137 19.98413086 4.70288086 C19.9669603 8.0520087 19.95448774 11.40108889 19.94506836 14.75024414 C19.94007852 16.192309 19.93328427 17.63436891 19.92456055 19.07641602 C19.6677681 30.6057626 19.6677681 30.6057626 21 42 C22.32 42.66 23.64 43.32 25 44 C25 37.73 25 31.46 25 25 C34.14285714 26.14285714 34.14285714 26.14285714 39 31 C40.61271641 34.22543282 40.4444859 37.50294182 40 41 C36.90923338 47.85343903 30.9051012 50.41233403 24.26171875 53.11328125 C16.06650808 55.3412008 5.09809119 55.80261627 -2.5 51.6875 C-5.17025347 49.92322538 -6.1658235 48.75126475 -8 46 C-8.79494788 42.05583554 -8.84687498 38.46003446 -6.796875 34.92578125 C-4.15669638 31.7455661 -1.79029301 29.70563186 2 28 C4.04301154 32.52381127 5.00956295 37.16371695 6 42 C6.99 42 7.98 42 9 42 C8.43108293 35.17993314 7.07013834 28.98929524 5.125 22.4375 C4.86847656 21.54353516 4.61195312 20.64957031 4.34765625 19.72851562 C3.14499064 15.59775208 1.86391176 11.58370319 0.2421875 7.59765625 C-0.99029252 4.02811507 -1.08715751 3.34096461 0 0 Z " fill="#E19110" transform="translate(110,117)"/>
<path d="M0 0 C0.33 0 0.66 0 1 0 C2.6620775 7.81176426 1.96593514 12.62808579 -2.265625 19.421875 C-3.12414062 20.69804687 -3.12414062 20.69804687 -4 22 C-4.46921875 22.76828125 -4.9384375 23.5365625 -5.421875 24.328125 C-8.94076892 29.66577307 -12.73850473 32.53686395 -19 34 C-26.24371824 34.87123759 -33.04474004 35.26650759 -39.0546875 30.6875 C-39.69664063 30.130625 -40.33859375 29.57375 -41 29 C-41.86882812 28.29875 -42.73765625 27.5975 -43.6328125 26.875 C-48.39490348 22.85910562 -51.47520398 20.20691423 -53 14 C-53.125 10.625 -53.125 10.625 -53 8 C-52.01 8.495 -52.01 8.495 -51 9 C-51 9.66 -51 10.32 -51 11 C-50.2575 11.28875 -49.515 11.5775 -48.75 11.875 C-46 13 -46 13 -44.0625 14.0625 C-34.80721591 18.26944731 -23.21446635 16.17740219 -14 13 C-7.89740987 10.15548691 -3.05504076 6.11008152 0 0 Z " fill="#F2A120" transform="translate(157,184)"/>
<path d="M0 0 C3.4375 0.8125 3.4375 0.8125 7 2 C7.495 3.485 7.495 3.485 8 5 C5.03 5.99 2.06 6.98 -1 8 C-1.33 10.31 -1.66 12.62 -2 15 C-4.31 15.66 -6.62 16.32 -9 17 C-9.495 15.02 -9.495 15.02 -10 13 C-14.48684201 13.33867462 -14.48684201 13.33867462 -17.875 16.0625 C-18.24625 16.701875 -18.6175 17.34125 -19 18 C-21.31 17.67 -23.62 17.34 -26 17 C-25.34 19.31 -24.68 21.62 -24 24 C-24.68707031 24.33773437 -25.37414062 24.67546875 -26.08203125 25.0234375 C-26.98308594 25.46945313 -27.88414063 25.91546875 -28.8125 26.375 C-29.70582031 26.81585938 -30.59914062 27.25671875 -31.51953125 27.7109375 C-34.14556381 29.01866905 -34.14556381 29.01866905 -37 31 C-37.721875 30.7525 -38.44375 30.505 -39.1875 30.25 C-43.27187155 29.88694475 -45.1543308 31.73168409 -48.26171875 34.23046875 C-50.56729665 36.57749524 -51.38957835 38.79528633 -52 42 C-53.98 41.67 -55.96 41.34 -58 41 C-58.2475 39.948125 -58.495 38.89625 -58.75 37.8125 C-59.76700786 34.1866459 -61.45373429 31.80089228 -64 29 C-64.5775 29.350625 -65.155 29.70125 -65.75 30.0625 C-68 31 -68 31 -70.1875 30.75 C-72 30 -72 30 -73 28 C-71.80375 27.443125 -70.6075 26.88625 -69.375 26.3125 C-66.45783587 24.88221494 -64.18278686 23.4030684 -61.8125 21.1875 C-59 19 -59 19 -56.125 19.1875 C-55.42375 19.455625 -54.7225 19.72375 -54 20 C-54 21.32 -54 22.64 -54 24 C-51.47474936 23.57912489 -49.38887339 23.22409653 -47.15625 21.9375 C-44.42882341 20.75166235 -42.67818464 20.98971255 -39.75 21.375 C-38.85796875 21.48585938 -37.9659375 21.59671875 -37.046875 21.7109375 C-36.37140625 21.80632813 -35.6959375 21.90171875 -35 22 C-35 20.35 -35 18.7 -35 17 C-33.9275 16.814375 -32.855 16.62875 -31.75 16.4375 C-29.34475249 15.78327268 -28.29513788 15.44062839 -26.890625 13.34375 C-26.59671875 12.7146875 -26.3028125 12.085625 -26 11.4375 C-24 8 -24 8 -20.5 7 C-17.64223481 7 -15.68676386 7.23235318 -13 8 C-9.89556723 7.3384196 -9.89556723 7.3384196 -8.875 5 C-8.58625 4.34 -8.2975 3.68 -8 3 C-7 2 -7 2 -3.4375 1.9375 C-2.303125 1.958125 -1.16875 1.97875 0 2 C0 1.34 0 0.68 0 0 Z " fill="#FFB83B" transform="translate(129,22)"/>
<path d="M0 0 C3 0.1875 3 0.1875 5 1.1875 C4.8570752 1.8362207 4.71415039 2.48494141 4.56689453 3.15332031 C2.68734899 12.77593689 2.77254427 22.18294091 2.875 31.9375 C2.88505603 33.61718213 2.89417722 35.29687012 2.90234375 36.9765625 C2.92413532 41.04702282 2.95851837 45.11719468 3 49.1875 C-0.875 48.3125 -0.875 48.3125 -2 47.1875 C-3.13981633 39.58604887 -3.14984938 32.04931557 -3.125 24.375 C-3.13080078 22.55452148 -3.13080078 22.55452148 -3.13671875 20.69726562 C-3.13542969 19.53259766 -3.13414062 18.36792969 -3.1328125 17.16796875 C-3.13168457 16.11504639 -3.13055664 15.06212402 -3.12939453 13.97729492 C-3.01643381 11.5418191 -2.70245313 9.51075734 -2 7.1875 C-3.64507218 6.99343522 -5.29109594 6.80742065 -6.9375 6.625 C-7.85402344 6.52058594 -8.77054688 6.41617188 -9.71484375 6.30859375 C-10.84599609 6.24865234 -10.84599609 6.24865234 -12 6.1875 C-12.33 6.5175 -12.66 6.8475 -13 7.1875 C-16.36629251 7.33386054 -18.78419562 7.25943479 -22 6.1875 C-21.2997933 10.28101607 -20.06734593 14.02437655 -18.6875 17.9375 C-16.72940785 23.66790487 -15.05641177 29.42816266 -13.625 35.3125 C-13.44541748 36.02245117 -13.26583496 36.73240234 -13.08081055 37.46386719 C-12.16757921 41.35870814 -11.84432783 44.33025653 -13 48.1875 C-14.32 47.8575 -15.64 47.5275 -17 47.1875 C-17.22550537 46.22263672 -17.22550537 46.22263672 -17.45556641 45.23828125 C-20.1273169 33.91312875 -22.76932088 22.71987034 -27.17041016 11.92382812 C-28.3022596 9.14544518 -29 7.22857811 -29 4.1875 C-27.5625 2.4375 -27.5625 2.4375 -25 1.1875 C-22.58979027 1.26334576 -20.30356639 1.56399137 -17.92578125 1.9609375 C-17.29027344 2.03570312 -16.65476562 2.11046875 -16 2.1875 C-15.67 1.8575 -15.34 1.5275 -15 1.1875 C-11.33655389 1.05181681 -8.49384279 1.02288574 -5 2.1875 C-3 0.1875 -3 0.1875 0 0 Z " fill="#FEFCF4" transform="translate(132,111.8125)"/>
<path d="M0 0 C1.21558844 0.96408739 2.41494088 1.94898153 3.59765625 2.953125 C7.34734386 5.46614315 11.40384052 5.68338719 15.8125 6.4375 C16.4725 10.3975 17.1325 14.3575 17.8125 18.4375 C10.68299629 20.33870099 4.17509293 20.66174141 -3.1875 20.4375 C-4.39034401 18.36176919 -5.57455701 16.27866905 -6.75 14.1875 C-7.26336914 13.30771484 -7.26336914 13.30771484 -7.78710938 12.41015625 C-9.16844113 9.92654966 -10.20843367 8.04666972 -10.109375 5.1640625 C-8.20083672 1.58959674 -3.99779208 -1.02800368 0 0 Z " fill="#FFB83B" transform="translate(171.1875,33.5625)"/>
<path d="M0 0 C0.60328125 0.08378906 1.2065625 0.16757813 1.828125 0.25390625 C3.02695313 0.40666016 3.02695313 0.40666016 4.25 0.5625 C5.03890625 0.66691406 5.8278125 0.77132812 6.640625 0.87890625 C8.95022503 1.13717485 8.95022503 1.13717485 10.859375 0.40234375 C13 0 13 0 20 2 C19.67 9.26 19.34 16.52 19 24 C16.20052083 24.48828125 13.40104167 24.9765625 10.6015625 25.46484375 C8.03090344 25.87712062 8.03090344 25.87712062 6 27 C5.74476562 25.89205078 5.74476562 25.89205078 5.484375 24.76171875 C3.96766612 18.41251722 2.15303737 12.416091 -0.328125 6.375 C-1.06151469 3.78255274 -0.90324357 2.50128988 0 0 Z " fill="#FEE84F" transform="translate(110,117)"/>
<path d="M0 0 C0.33 0 0.66 0 1 0 C2.45783133 7.04618474 2.45783133 7.04618474 0.5 11.125 C-6.35015022 19.00267276 -14.33212628 24.11101052 -25 25 C-34.52679716 25.50056053 -41.99144128 24.33903915 -50 19 C-52.36310223 16.63689777 -52.98171692 15.72379499 -53.06640625 12.37109375 C-53.04449219 11.58863281 -53.02257812 10.80617187 -53 10 C-52.49210937 10.40992188 -51.98421875 10.81984375 -51.4609375 11.2421875 C-50.42839844 12.05042969 -50.42839844 12.05042969 -49.375 12.875 C-48.70210938 13.40867188 -48.02921875 13.94234375 -47.3359375 14.4921875 C-39.39957003 19.61499326 -29.37778271 19.03103459 -20.4140625 17.3125 C-13.86653295 15.4810232 -7.59702902 13.20996622 -3 8 C-1.57811568 5.32066695 -0.81420491 2.95149278 0 0 Z " fill="#F3A220" transform="translate(156,176)"/>
<path d="M0 0 C0.495 0.99 0.495 0.99 1 2 C-4.52581328 9.51944003 -11.29814383 14.03938824 -20.55078125 15.71875 C-29.49422221 16.74574801 -38.55244069 16.96461261 -46.109375 11.46484375 C-47.80510225 10.0302585 -49.4248436 8.56502678 -51 7 C-48.25520246 5.62760123 -46.8044959 6.31971947 -43.8125 6.9375 C-28.87456486 9.52222625 -12.89190309 8.8042265 0 0 Z " fill="#F1A323" transform="translate(152,165)"/>
<path d="M0 0 C1.80913922 2.76611463 3.41786842 5.62290107 5.05078125 8.49609375 C7.36981877 11.47505778 8.40423484 11.46358257 12 12 C14.23251374 16.00312808 15.54165317 19.39594808 15 24 C14.67 24.33 14.34 24.66 14 25 C11.8203125 24.984375 11.8203125 24.984375 9.125 24.75 C8.24070312 24.68296875 7.35640625 24.6159375 6.4453125 24.546875 C1.17574507 23.36837749 -0.93047612 18.29163526 -3.6875 14 C-4.31108398 13.05640625 -4.31108398 13.05640625 -4.94726562 12.09375 C-8 7.36176108 -8 7.36176108 -8 4 C-2.74285714 0 -2.74285714 0 0 0 Z " fill="#FFE74C" transform="translate(35,111)"/>
<path d="M0 0 C0 4.89911647 -2.94534972 8.31174322 -6 12 C-13.19309897 17.59969097 -21.22517059 17.86677005 -30 17 C-33.14813394 15.80894775 -35.45656054 14.1784088 -38 12 C-38.598125 11.52304688 -39.19625 11.04609375 -39.8125 10.5546875 C-41.23512583 9.40209713 -42.62207979 8.20568019 -44 7 C-43.34 6.67 -42.68 6.34 -42 6 C-40.328125 6.55859375 -40.328125 6.55859375 -38.25 7.4375 C-27.80817307 11.05778028 -16.88686453 9.5710319 -7 5 C-4.45837664 3.47675204 -2.30112546 1.88273901 0 0 Z " fill="#CD7C01" transform="translate(154,201)"/>
<path d="M0 0 C2.86964374 6.25172386 4.51137226 11.09647445 4 18 C-2.88816846 19.9001844 -8.26184473 21.1708966 -15 18 C-14.505 16.515 -14.505 16.515 -14 15 C-13.34 15 -12.68 15 -12 15 C-12 11.7 -12 8.4 -12 5 C-9.41210938 3.92578125 -9.41210938 3.92578125 -6.82421875 2.8515625 C-0.71559633 0 -0.71559633 0 0 0 Z " fill="#FFE84C" transform="translate(134,42)"/>
<path d="M0 0 C4.23298629 0.74968656 5.94234326 2.50465597 8.6015625 5.7578125 C11.11891147 9.79400889 12.33541077 14.31053893 13 19 C12 22 12 22 9.1875 23.75 C5.89036034 25.04299594 5.13949415 25.29496238 2 24 C-1.30177076 19.91354915 -2.54033387 15.20493346 -2.2734375 10.03125 C-1.8100347 6.58882921 -0.95402663 3.33909322 0 0 Z " fill="#FFBA3C" transform="translate(54,78)"/>
<path d="M0 0 C0.33 0 0.66 0 1 0 C0.87923694 5.79662667 -0.80433026 8.91714304 -4.76171875 13.13671875 C-14.20086855 20.99444031 -25.28122187 21.66721822 -37 21 C-43.16243114 19.89770598 -47.68726409 17.5283727 -52 13 C-52.875 10.1875 -52.875 10.1875 -53 8 C-52.01 8.495 -52.01 8.495 -51 9 C-51 9.66 -51 10.32 -51 11 C-50.2575 11.28875 -49.515 11.5775 -48.75 11.875 C-46 13 -46 13 -44.0625 14.0625 C-34.80721591 18.26944731 -23.21446635 16.17740219 -14 13 C-7.89740987 10.15548691 -3.05504076 6.11008152 0 0 Z " fill="#CE7D01" transform="translate(157,184)"/>
<path d="M0 0 C0.33 0 0.66 0 1 0 C1.31349317 3.91866466 1.24669026 6.47444249 -0.4375 10.0625 C-7.48244591 18.13841361 -16.20646367 21.42197853 -26.71875 22.31640625 C-36.1723739 22.60946859 -42.63526749 21.54634517 -50 15.5625 C-52.06719476 12.91390671 -52.716064 11.31258663 -53 8 C-52.5875 8.39832031 -52.175 8.79664063 -51.75 9.20703125 C-44.2354191 16.10098828 -37.86470839 17.59902282 -27.66796875 17.34765625 C-18.63882825 16.49185912 -9.30823652 13.87436031 -3 7 C-1.61660399 4.66140199 -0.83548655 2.61089548 0 0 Z " fill="#CE7D01" transform="translate(155,173)"/>
<path d="M0 0 C0.33 0 0.66 0 1 0 C0.87669562 5.91861013 -0.92067596 8.93225961 -4.98046875 13.20703125 C-13.03296788 20.35615523 -23.46615586 21.44382031 -33.84765625 21.25 C-41.23079997 20.66447187 -46.87680077 18.37935919 -52 13 C-52.65625 10.3359375 -52.65625 10.3359375 -53 8 C-52.43152344 8.40992188 -51.86304687 8.81984375 -51.27734375 9.2421875 C-41.91990772 15.77208443 -33.38793761 17.34342473 -22.09765625 15.53515625 C-12.13616178 13.17401661 -5.48601422 8.57189721 0 0 Z " fill="#CE7D01" transform="translate(154,164)"/>
<path d="M0 0 C-0.33 3.3 -0.66 6.6 -1 10 C-2.65 10.66 -4.3 11.32 -6 12 C-5.67 13.98 -5.34 15.96 -5 18 C-4.34 18 -3.68 18 -3 18 C-3 18.66 -3 19.32 -3 20 C-13.78031384 16.07988588 -13.78031384 16.07988588 -16.11328125 12.1015625 C-17.53416116 8.47865544 -18 5.96135311 -18 2 C-4.58823529 -1.52941176 -4.58823529 -1.52941176 0 0 Z " fill="#FFE84C" transform="translate(23,93)"/>
<path d="M0 0 C4.05281712 1.22527029 7.44360764 2.69880494 11 5 C10.67 5.70125 10.34 6.4025 10 7.125 C8.81871682 9.98480041 8.81871682 9.98480041 9.0625 13.125 C9 16 9 16 7.9140625 17.73046875 C4.94410429 19.70033899 2.73013889 18.83042217 -0.6875 18.1875 C-1.86699219 17.97480469 -3.04648438 17.76210938 -4.26171875 17.54296875 C-5.16535156 17.36378906 -6.06898438 17.18460938 -7 17 C-6.05497338 9.98987717 -4.52416915 5.47662582 0 0 Z " fill="#FFE84C" transform="translate(155,2)"/>
<path d="M0 0 C3 1 3 1 5 4 C4.35548745 9.58884458 2.600833 16.80659363 -1.8203125 20.53515625 C-3.75 21.625 -3.75 21.625 -7 23 C-7.226875 21.96875 -7.45375 20.9375 -7.6875 19.875 C-8.8606081 15.65352339 -11.12803776 13.24985201 -14 10 C-14 9.34 -14 8.68 -14 8 C-12.989375 7.79375 -11.97875 7.5875 -10.9375 7.375 C-6.89380184 6.26769929 -4.50480042 4.06436865 -1.578125 1.14453125 C-1.05734375 0.76683594 -0.5365625 0.38914062 0 0 Z " fill="#FFB83B" transform="translate(65,103)"/>
<path d="M0 0 C3.35620271 1.38877354 5.07298728 2.91677965 7 6 C7 6.66 7 7.32 7 8 C6.443125 8.515625 5.88625 9.03125 5.3125 9.5625 C2.09388329 12.95509599 0.15087905 16.87454345 -2 21 C-2.66 21 -3.32 21 -4 21 C-4.36590746 19.27327966 -4.71722195 17.54346345 -5.0625 15.8125 C-5.35833984 14.36810547 -5.35833984 14.36810547 -5.66015625 12.89453125 C-6.01184256 9.89913405 -5.89240868 7.87122791 -5 5 C-2.4375 2.1875 -2.4375 2.1875 0 0 Z " fill="#FFE84C" transform="translate(16,50)"/>
<path d="M0 0 C2.97 0.33 5.94 0.66 9 1 C10.42258812 4.82320557 11.24042276 7.91281305 11 12 C6.46900722 13.79132273 5.01822701 14.0036454 0 13 C0 8.71 0 4.42 0 0 Z " fill="#FFE84C" transform="translate(87,62)"/>
<path d="M0 0 C0.6875 2.0625 0.6875 2.0625 1 4 C1.66 4 2.32 4 3 4 C2.125 8.875 2.125 8.875 1 10 C-2.95355026 10.44926708 -4.55622323 10.30871428 -7.875 8 C-8.57625 7.34 -9.2775 6.68 -10 6 C-8.20404732 1.26521567 -5.07984355 -1.69328118 0 0 Z " fill="#FFE84C" transform="translate(186,12)"/>
<path d="M0 0 C5.14899129 2.09773719 9.05821481 6.35507602 12 11 C12 11.99 12 12.98 12 14 C8.58054189 13.57729946 5.28859362 13.04538075 2 12 C-0.68865616 8.38065517 -0.17224788 4.39232098 0 0 Z " fill="#FFB83B" transform="translate(153,50)"/>
<path d="M0 0 C3 1 3 1 4.6875 3.5625 C6.28057068 7.73482797 6.22913445 10.57006738 6 15 C3.0280615 13.87548273 0.66559313 12.77706209 -2 11 C-2.36328125 8.90625 -2.36328125 8.90625 -2.3125 6.5 C-2.30863281 5.7059375 -2.30476563 4.911875 -2.30078125 4.09375 C-2 2 -2 2 0 0 Z " fill="#FFE84C" transform="translate(34,74)"/>
<path d="M0 0 C0.99 3.96 1.98 7.92 3 12 C0 14 0 14 -3 14 C-4.71767682 10.01811282 -6.41037341 6.03520597 -8 2 C-2.25 0 -2.25 0 0 0 Z " fill="#FFB83B" transform="translate(191,63)"/>
<path d="M0 0 C0 5.61 0 11.22 0 17 C-3 16 -3 16 -4.60546875 13.27734375 C-5.12753906 12.17519531 -5.64960937 11.07304688 -6.1875 9.9375 C-6.71730469 8.83277344 -7.24710938 7.72804688 -7.79296875 6.58984375 C-8.19128906 5.73519531 -8.58960938 4.88054687 -9 4 C-2.25 0 -2.25 0 0 0 Z " fill="#FFE84C" transform="translate(44,93)"/>
<path d="M0 0 C0.765625 1.77734375 0.765625 1.77734375 1.25 3.9375 C1.42015625 4.64777344 1.5903125 5.35804687 1.765625 6.08984375 C2 8 2 8 1 10 C-0.8125 9.875 -0.8125 9.875 -3 9 C-4.95320589 5.79116175 -6 3.7794561 -6 0 C-3 -1 -3 -1 0 0 Z " fill="#FFB83B" transform="translate(196,95)"/>
<path d="M0 0 C2.97 0.495 2.97 0.495 6 1 C5.34 1.66 4.68 2.32 4 3 C5.65 5.64 7.3 8.28 9 11 C5.55379139 9.8512638 4.90830804 8.92418358 2.8125 6.0625 C2.28269531 5.35222656 1.75289062 4.64195313 1.20703125 3.91015625 C0 2 0 2 0 0 Z " fill="#FFC543" transform="translate(51,111)"/>
</svg>
